<svg width="24" height="24" viewBox="0 0 24 24" fill="none" xmlns="http://www.w3.org/2000/svg">
<g clip-path="url(#clip0_186_6)">
<circle cx="12" cy="12" r="12" fill="#092253"/>
<path d="M18.9651 15.2708C19.1351 14.8658 18.6493 14.5209 18.2418 14.7009C17.4273 15.0584 16.5472 15.2423 15.6576 15.2408C12.1701 15.2408 9.34339 12.4709 9.34339 9.05337C9.34211 7.89949 9.66993 6.76918 10.2884 5.79505C10.5251 5.42171 10.2409 4.90505 9.80756 5.01505C6.46669 5.86755 4 8.8442 4 12.385C4 16.5908 7.4792 20 11.7717 20C15.0218 20 17.8051 18.0458 18.9651 15.2708Z" fill="white"/>
<path d="M14.7232 5.08159C14.3026 4.80062 13.801 5.30224 14.0812 5.7229L14.5812 6.47295C14.784 6.77707 14.8923 7.13444 14.8923 7.5C14.8923 7.86556 14.784 8.22293 14.5812 8.52705L14.0812 9.2771C13.801 9.69776 14.3034 10.1994 14.724 9.91841L15.4732 9.41838C15.7773 9.21554 16.1347 9.10729 16.5002 9.10729C16.8657 9.10729 17.2231 9.21554 17.5272 9.41838L18.2772 9.91841C18.6978 10.1994 19.1994 9.69776 18.9184 9.2771L18.4184 8.52705C18.2156 8.22293 18.1074 7.86556 18.1074 7.5C18.1074 7.13444 18.2156 6.77707 18.4184 6.47295L18.9184 5.7229C19.1994 5.30224 18.6978 4.80062 18.2764 5.08159L17.5272 5.58162C17.2231 5.78447 16.8657 5.89271 16.5002 5.89271C16.1347 5.89271 15.7773 5.78447 15.4732 5.58162L14.7232 5.08159Z" fill="white"/>
</g>
<defs>
<clipPath id="clip0_186_6">
<rect width="24" height="24" fill="white"/>
</clipPath>
</defs>
</svg>
