<svg xmlns="http://www.w3.org/2000/svg" version="1.1" xmlns:xlink="http://www.w3.org/1999/xlink" xmlns:svgjs="http://svgjs.com/svgjs" width="31" height="31"><svg width="31" height="31" viewBox="0 0 31 31" fill="none" xmlns="http://www.w3.org/2000/svg">
<g clip-path="url(#clip0_191_13)">
<circle cx="15.5" cy="15.5" r="15.5" fill="#4E76EC"></circle>
<path d="M8.36017 26V4.18182H12.8985V12.3849H13.037C13.2359 11.9446 13.5235 11.4972 13.8999 11.0426C14.2835 10.581 14.7806 10.1974 15.3914 9.89205C16.0093 9.57955 16.7764 9.4233 17.6926 9.4233C18.8857 9.4233 19.9866 9.7358 20.9951 10.3608C22.0036 10.9787 22.8097 11.9126 23.4134 13.1626C24.0171 14.4055 24.319 15.9645 24.319 17.8395C24.319 19.6648 24.0242 21.206 23.4347 22.4631C22.8524 23.7131 22.0569 24.6612 21.0484 25.3075C20.047 25.9467 18.9248 26.2663 17.6819 26.2663C16.8012 26.2663 16.0519 26.1207 15.434 25.8295C14.8232 25.5384 14.3225 25.1726 13.9319 24.7322C13.5413 24.2848 13.243 23.8338 13.037 23.3793H12.8346V26H8.36017ZM12.8026 17.8182C12.8026 18.7912 12.9376 19.6399 13.2075 20.3643C13.4774 21.0888 13.868 21.6534 14.3794 22.0582C14.8907 22.456 15.5122 22.6548 16.2437 22.6548C16.9823 22.6548 17.6073 22.4524 18.1187 22.0476C18.6301 21.6357 19.0171 21.0675 19.2799 20.343C19.5498 19.6115 19.6847 18.7699 19.6847 17.8182C19.6847 16.8736 19.5534 16.0426 19.2906 15.3253C19.0278 14.608 18.6407 14.0469 18.1294 13.642C17.618 13.2372 16.9894 13.0348 16.2437 13.0348C15.5051 13.0348 14.8801 13.2301 14.3687 13.6207C13.8644 14.0114 13.4774 14.5653 13.2075 15.2827C12.9376 16 12.8026 16.8452 12.8026 17.8182Z" fill="white"></path>
</g>
<defs>
<clipPath id="SvgjsClipPath1000">
<rect width="31" height="31" fill="white"></rect>
</clipPath>
</defs>
</svg><style>@media (prefers-color-scheme: light) { :root { filter: none; } }
</style></svg>